name C:\Users\u0150099\Documents\master_thesis\3dpredictsim\Results\debug\Fal_s1_mtjc2_sc_cspx10_oy2_ATx70_Fpsl10_MTc2_MTPm_k1_d01_MTJm_nl_MG_exp5_table_d01_PF_Gefen2002_xv2_ls146_ig21.mot
datacolumns 128
datarows 4
range 0.00000000 0.03562083
endheader
time	pelvis_tilt	pelvis_list	pelvis_rotation	pelvis_tx	pelvis_ty	pelvis_tz	hip_flexion_l	hip_adduction_l	hip_rotation_l	hip_flexion_r	hip_adduction_r	hip_rotation_r	knee_angle_l	knee_angle_r	ankle_angle_l	ankle_angle_r	subtalar_angle_l	subtalar_angle_r	mtj_angle_l	mtj_angle_r	mtp_angle_l	mtp_angle_r	lumbar_extension	lumbar_bending	lumbar_rotation	arm_flex_l	arm_add_l	arm_rot_l	arm_flex_r	arm_add_r	arm_rot_r	elbow_flex_l	elbow_flex_r	pro_sup_l	pro_sup_r	glut_med1_l/activation	glut_med2_l/activation	glut_med3_l/activation	glut_min1_l/activation	glut_min2_l/activation	glut_min3_l/activation	semimem_l/activation	semiten_l/activation	bifemlh_l/activation	bifemsh_l/activation	sar_l/activation	add_long_l/activation	add_brev_l/activation	add_mag1_l/activation	add_mag2_l/activation	add_mag3_l/activation	tfl_l/activation	pect_l/activation	grac_l/activation	glut_max1_l/activation	glut_max2_l/activation	glut_max3_l/activation	iliacus_l/activation	psoas_l/activation	quad_fem_l/activation	gem_l/activation	peri_l/activation	rect_fem_l/activation	vas_med_l/activation	vas_int_l/activation	vas_lat_l/activation	med_gas_l/activation	lat_gas_l/activation	soleus_l/activation	tib_post_l/activation	flex_dig_l/activation	flex_hal_l/activation	tib_ant_l/activation	per_brev_l/activation	per_long_l/activation	per_tert_l/activation	ext_dig_l/activation	ext_hal_l/activation	ercspn_l/activation	intobl_l/activation	extobl_l/activation	glut_med1_r/activation	glut_med2_r/activation	glut_med3_r/activation	glut_min1_r/activation	glut_min2_r/activation	glut_min3_r/activation	semimem_r/activation	semiten_r/activation	bifemlh_r/activation	bifemsh_r/activation	sar_r/activation	add_long_r/activation	add_brev_r/activation	add_mag1_r/activation	add_mag2_r/activation	add_mag3_r/activation	tfl_r/activation	pect_r/activation	grac_r/activation	glut_max1_r/activation	glut_max2_r/activation	glut_max3_r/activation	iliacus_r/activation	psoas_r/activation	quad_fem_r/activation	gem_r/activation	peri_r/activation	rect_fem_r/activation	vas_med_r/activation	vas_int_r/activation	vas_lat_r/activation	med_gas_r/activation	lat_gas_r/activation	soleus_r/activation	tib_post_r/activation	flex_dig_r/activation	flex_hal_r/activation	tib_ant_r/activation	per_brev_r/activation	per_long_r/activation	per_tert_r/activation	ext_dig_r/activation	ext_hal_r/activation	ercspn_r/activation	intobl_r/activation	extobl_r/activation	
          0.00000000	         -2.85111859	         -0.47174457	          6.99303570	          0.00000000	          0.89956971	         -0.00590888	        -19.97229518	          0.92582589	         11.54762016	         30.74331149	          0.07581969	         -4.70134497	         -8.55397752	         -9.27533518	          6.31967449	          6.02359711	          9.56471518	          6.77655374	         -2.08873733	          5.74745635	         16.54198117	        -14.90729781	         -2.08258246	         -1.23550920	         -2.01182213	          4.47735383	        -14.10064144	         19.33801785	        -12.04839705	        -13.52378401	          4.67650567	         40.17831824	         28.17351178	         86.51662706	         86.51662706	          0.37365869	          0.05989476	          0.05000005	          0.47877270	          0.21296838	          0.08057855	          0.05000025	          0.05000002	          0.05000002	          0.08668367	          0.11100913	          0.05000000	          0.05000000	          0.05000002	          0.05000009	          0.05000008	          0.58306246	          0.05000004	          0.05000004	          0.05000092	          0.05000033	          0.05000014	          0.44638317	          0.78337162	          0.05000001	          0.05000010	          0.05000001	          0.39871852	          0.09708202	          0.10563419	          0.08262023	          0.38860504	          0.46852661	          0.26042095	          0.64412406	          0.68698932	          0.68689971	          0.05000000	          0.06576910	          0.34384672	          0.05000000	          0.05000000	          0.08880315	          0.05000000	          0.05000000	          0.10656131	          0.05000001	          0.05000001	          0.05000040	          0.05000001	          0.05000001	          0.05000005	          0.34873065	          0.07174743	          0.07174743	          0.07174742	          0.05989316	          0.15951117	          0.13253619	          0.14455934	          0.10993547	          0.09390815	          0.05000025	          0.05989614	          0.11232792	          0.05000022	          0.05989467	          0.08302024	          0.05546457	          0.06377821	          0.24671536	          0.10740324	          0.05000016	          0.05000000	          0.05000002	          0.05000002	          0.05000002	          0.05892312	          0.05000016	          0.05195244	          0.05163319	          0.55872483	          0.45003447	          0.37633432	          0.05281647	          0.05000002	          0.52884569	          0.53876205	          0.09141038	          0.05000000	          0.13301391	          0.15416178	
          0.01187361	         -2.87284680	         -0.60875752	          7.12128065	          0.01929877	          0.89923378	         -0.00550023	        -20.10087581	          0.52010704	         11.50957439	         30.32380569	          0.62570314	         -4.75804352	         -9.97714411	         -9.52866617	          4.74823683	          5.66686944	         10.20121747	          7.20032064	         -3.46040405	          5.77280731	         20.23494145	        -14.42328057	         -1.91080699	         -0.96260756	         -2.18805563	          3.99342496	        -14.02328737	         19.21110931	        -13.10514858	        -13.47651388	          4.57956076	         41.42277586	         28.03006937	         86.51662706	         86.51662706	          0.31192982	          0.05000008	          0.05000000	          0.39967887	          0.17778575	          0.06726688	          0.05000040	          0.05000001	          0.05000001	          0.07236343	          0.09267031	          0.06609326	          0.05000018	          0.05000005	          0.05000014	          0.05000011	          0.51782863	          0.08210620	          0.05000002	          0.05000005	          0.05000003	          0.05000004	          0.37264012	          0.69175073	          0.05000000	          0.05000001	          0.05000002	          0.45464124	          0.09269368	          0.10495350	          0.08486361	          0.32440700	          0.39112544	          0.21739908	          0.56254742	          0.79364747	          0.65052795	          0.05000000	          0.05989467	          0.29950004	          0.05000000	          0.05000000	          0.07413276	          0.05000000	          0.07863260	          0.12332779	          0.05989466	          0.05989466	          0.05000002	          0.05989467	          0.05989467	          0.05989459	          0.29896763	          0.05989467	          0.05989467	          0.05989467	          0.05000007	          0.14775434	          0.11064107	          0.26207651	          0.19318511	          0.11275126	          0.05000001	          0.05000138	          0.09377122	          0.05000105	          0.05000007	          0.10398323	          0.07831003	          0.08594545	          0.57954024	          0.32201519	          0.16503434	          0.05000001	          0.05000002	          0.05000001	          0.05000001	          0.05000000	          0.05000000	          0.05000000	          0.05000006	          0.50451046	          0.37568833	          0.39097585	          0.05000000	          0.09432713	          0.61129643	          0.62904257	          0.14034791	          0.05000000	          0.11103985	          0.12869406	
          0.02374722	         -2.89039928	         -0.76848591	          7.21543134	          0.03894319	          0.89892121	         -0.00505102	        -20.18364604	          0.09203238	         11.39996258	         29.91396120	          1.11917850	         -4.79238304	        -11.37569887	        -10.48803743	          2.78196568	          4.84473630	         10.88256331	          7.63143698	         -4.86509085	          5.86593892	         24.14336242	        -13.65087488	         -1.73117732	         -0.66474656	         -2.35430006	          3.42496587	        -13.95198561	         19.04908116	        -14.09883217	        -13.45055405	          4.75237305	         42.65485487	         27.69693771	         86.51662706	         86.51662706	          0.26039863	          0.05989467	          0.05989467	          0.33365143	          0.14841533	          0.05801360	          0.05000048	          0.05989458	          0.05989466	          0.06040890	          0.07736108	          0.18234473	          0.14625805	          0.10041206	          0.05989477	          0.05989477	          0.43228275	          0.06854227	          0.05989471	          0.05989471	          0.05989470	          0.05989470	          0.31107952	          0.64533119	          0.05989467	          0.05989469	          0.05000006	          0.37953396	          0.14451993	          0.14928655	          0.13230290	          0.27081456	          0.32651103	          0.18148448	          0.46961389	          0.84159268	          0.54306001	          0.05000000	          0.05000000	          0.26033863	          0.05000000	          0.05000000	          0.06188594	          0.05522279	          0.07888201	          0.10295389	          0.05000000	          0.05000000	          0.13083613	          0.05000000	          0.05000000	          0.05000000	          0.24957782	          0.05000000	          0.05000000	          0.05000000	          0.05000012	          0.12334519	          0.23767185	          0.21878124	          0.16127075	          0.15577185	          0.05989457	          0.08594750	          0.07828011	          0.05000002	          0.15757221	          0.18247162	          0.06537467	          0.07174723	          0.65345607	          0.26881789	          0.14797721	          0.06410885	          0.13353532	          0.13137763	          0.10169822	          0.05989467	          0.05989467	          0.05989466	          0.05000000	          0.49347730	          0.31362418	          0.47924760	          0.05989469	          0.07874418	          0.78303793	          0.63277106	          0.28743692	          0.05000000	          0.09269593	          0.10743364	
          0.03562083	         -2.90426799	         -0.98577366	          7.27929914	          0.05878164	          0.89870879	         -0.00462963	        -20.19309285	         -0.37137898	         11.23627772	         29.42524723	          1.50894210	         -4.71613167	        -12.77940286	        -11.61887049	          0.42951482	          3.63672521	         11.52476665	          8.12999706	         -6.24802116	          6.12199416	         28.05733544	        -12.73134849	         -1.54724462	         -0.30008579	         -2.50873319	          2.79945717	        -13.86620426	         18.86959648	        -14.99445457	        -13.45710854	          5.17439330	         43.84916276	         27.13843804	         86.51662706	         86.51662706	          0.22899697	          0.05000000	          0.05000000	          0.36229002	          0.12389695	          0.05000002	          0.05000029	          0.05000001	          0.05000000	          0.05989466	          0.07110305	          0.15222116	          0.12209605	          0.08382387	          0.05000011	          0.05000010	          0.53045953	          0.05989481	          0.05000005	          0.05000008	          0.05000004	          0.05000004	          0.30522596	          0.67391039	          0.05000000	          0.05000003	          0.05000000	          0.32249270	          0.12064506	          0.12462423	          0.11044630	          0.22607566	          0.27257100	          0.15150302	          0.39203310	          0.83834202	          0.45334586	          0.14191499	          0.14955586	          0.21733052	          0.46973999	          0.05000001	          0.05166231	          0.09891228	          0.06585061	          0.08594578	          0.28255925	          0.35442402	          0.40699317	          0.39941929	          0.30340242	          0.21892291	          0.21202800	          0.21130899	          0.13542598	          0.17696925	          0.05989479	          0.10296842	          0.19840817	          0.18263832	          0.13462864	          0.18965453	          0.05000002	          0.07174890	          0.28910629	          0.27239372	          0.23521302	          0.15232730	          0.05989466	          0.05989466	          0.54550432	          0.22440887	          0.16697919	          0.05351799	          0.11147512	          0.10967388	          0.08489755	          0.05000000	          0.05000000	          0.05000000	          0.05989475	          0.71727502	          0.61688666	          0.46357139	          0.05000002	          0.06599630	          0.65367911	          0.77699361	          0.36837578	          0.05159519	          0.09535802	          0.08968547	
